# xmcd
# 
# Track frame offsets:
#     150
#     23476
#     39937
#     50279
#     64031
#     76172
#     91242
#     107169
#     118745
#     133004
#     148050
#     161506
#     185536
#     193644
#     220109
#     238624
#     247327
#     256686
#     270490
#     290729
# 
# Disc length: 4072
# 
# Revision: 1
# Processed by: cddbd v1.5.2PL0 Copyright (c) Steve Scherf et al.
# Submitted via: fre:ac v1.0.27
# 
DISCID=1a0fe614
DTITLE=Various Artist - Jazz After Dark - Disc 2
DYEAR=2007
DGENRE=Jazz
TTITLE0=Jamie Cullum - What a difference a Day makes
TTITLE1=Stan Getz and João Gilberto - Só Danco Samba
TTITLE2=Tom Jones - Fly Me to the Moon
TTITLE3=Norah Jones - The Nearness of You
TTITLE4=Dave Crusin - The Girl from U.N.C.L.E.
TTITLE5=Paul Anka - Get Here
TTITLE6=Billie Holiday - Cheek to Cheek
TTITLE7=Amy Winehouse - Me and Mr. Jones
TTITLE8=Louis Armstrong - I'm Just A Lucky So And So
TTITLE9=Baden Powell - Tristeza
TTITLE10=Peggy Lee - Don't Know Enough About You
TTITLE11=Miles Davis Qunitet - There Is No Greater Love
TTITLE12=Kelly Rowland - I'm Beginning to See the Light
TTITLE13=Ramsey Lewis Trio - The 'In' Crowd
TTITLE14=Nina Simone - Love Me or Leave Me
TTITLE15=Marcos Valle - Pepino Beach
TTITLE16=Jackie Gleason - But Not for Me
TTITLE17=Mel Tormé - A Fine Romance
TTITLE18=The Duke Ellington Orchestra - Satin Doll
TTITLE19=NHØP - Imagine
EXTD=YEAR: 2007
EXTT0=
EXTT1=
EXTT2=
EXTT3=
EXTT4=
EXTT5=
EXTT6=
EXTT7=
EXTT8=
EXTT9=
EXTT10=
EXTT11=
EXTT12=
EXTT13=
EXTT14=
EXTT15=
EXTT16=
EXTT17=
EXTT18=
EXTT19=
PLAYORDER=
